Patient4_TMGait_0pt5_02_left_07_EMG.mot
version=1
nRows=16
nColumns=33
inDegrees=no
endheader
time	1LAddLong	2LGlutMax	3LGlutMed	4LIliopsoas	5LSemiMemb	6LBicFemLong	7LRecFem	8LVastMed	9LVastLat	10LGasMed	11LTibAnt	12lTibPost	13LPeroneusLong	14LSol	15LExtDigLong	16LFlexDigLong	17RAddLong	18RGlutMax	19RGlutMed	20RIliopsoas	21RSemiMemb	22RBicFemLong	23RRecFem	24RVastMed	25RVastLat	26RGasMed	27RTibAnt	28RTibPost	29RPeroneusLong	30RSol	31RExtDigLong	32RFlexDigLong
9.395	0.003967	0.10513	0.072021	0.000458	-0.076141	-0.053864	-0.079956	0.002594	-0.040436	0.22919	0.006409	-0.014191	0.03891	0.12421	-0.011902	0.022736	0.023956	0.018158	-0.032349	0.009613	0.31235	0.014648	-0.16419	0.028992	-0.01358	0.000916	0.02655	0.016022	-0.82092	-0.054016	0.007935	-0.00946
9.396	-0.000305	0.18082	0.10803	0.009766	-0.092621	-0.036011	-0.078888	0.00885	-0.0383	0.19791	-0.007782	0.024719	0.006104	0.092163	-0.010223	-0.007629	0.077515	0.067139	-0.097809	0.026398	0.48584	-0.091858	-0.12756	0.035248	0	0.001373	0.097656	0.014191	-1.2903	0.011597	-0.003052	-0.022583
9.397	0.012207	0.22232	0.093079	-0.002136	-0.029144	0.005951	-0.088348	0.00351	-0.03418	0.042114	-0.000305	-0.008087	0.027008	0.14893	-0.011902	-0.017548	0.12146	0.028839	-0.093994	0.07431	0.54245	-0.018463	-0.18845	0.03418	0.013733	-0.008392	0.10117	0.013733	-1.1104	0.019379	-0.003052	-0.03006
9.398	0.020752	0.18936	0.060883	0.005341	0.014343	-0.009308	-0.084534	0.00351	-0.041351	-0.002441	-0.00885	-0.024414	0.053406	-0.15839	-0.010834	-0.015259	0.11963	-0.009308	-0.39917	0.041046	0.18524	0.022278	-0.3157	0.001831	0.014343	-0.002136	-0.068817	0.011139	-0.18738	-0.011292	-0.003815	-0.019836
9.399	0.027771	0.17822	0.10864	0.016174	0.050812	-0.005188	-0.075531	-0.000916	-0.065308	0.012054	-0.005646	0.018463	0.068054	-0.098267	0.014343	-0.020599	0.10147	0.029755	-0.077362	-0.021515	-0.12329	0.018005	-0.37415	-0.06546	0.026093	0.002747	-0.14328	0.015259	0.63355	-0.036774	0.003204	-0.012817
9.4	0.027618	0.18158	0.16419	0.023041	0.062866	-0.015106	-0.074768	0.00885	-0.0737	-0.095062	-0.005646	0.029602	0.049438	-0.037994	0.00412	-0.023193	0.095215	0.027466	0.33402	-0.032806	-0.16815	0.001984	-0.29022	-0.058594	0.012512	-0.002899	-0.087891	0.013733	0.59204	0.024567	-0.003662	-0.016632
9.401	0.020752	0.21316	0.20111	0.006409	0.026398	-0.025635	-0.072632	0.015106	-0.061798	-0.16022	-0.010223	0.014191	0.032959	-0.047302	-0.013733	-0.056458	0.11353	-0.016632	0.17425	-0.013123	-0.04303	0.027313	-0.21805	-0.12314	-0.024109	-0.000458	0.04715	0.010529	0.50323	-0.013123	-0.000916	-0.009766
9.402	0.024261	0.19302	0.19943	0.01358	-0.009918	-0.049744	-0.10025	0.003662	-0.072174	-0.061646	0.00473	-0.16586	-0.021667	0.047913	-0.014801	-0.04837	0.13397	-0.00824	0.26276	-0.031891	0.14175	-0.032349	-0.15442	-0.14648	-0.032654	-0.00351	0.12741	0.012207	-0.22369	-0.041351	-0.002441	-0.005951
9.403	0.02594	0.25101	0.19989	0.012817	-0.022736	-0.067139	-0.11261	0	-0.063934	0.061493	0.003357	0.32944	-0.099335	0.15152	-0.007629	0.10147	0.11581	0.008698	0.2565	-0.03952	-0.15549	0.072784	-0.088043	-0.25925	-0.050964	-0.000763	0.22201	0.01236	-0.73776	-0.046387	-0.007629	-0.009918
9.404	0.030212	0.24338	0.21957	0.001221	-0.029602	-0.045624	-0.10819	0.013275	-0.062561	0.072479	0.007477	0.074005	-0.076599	0.112	-0.006866	-0.069427	0.042877	0.035706	0.34317	-0.017242	-0.44586	0.11841	-0.092163	-0.19745	-0.0383	0.00946	0.215	0.014496	-0.55206	-0.09201	-0.005188	-0.007019
9.405	0.018921	0.21149	0.21988	0.005951	-0.019379	-0.045929	-0.11673	0.016785	-0.065613	0.077972	-0.003204	-0.045013	-0.083771	-0.032501	-0.023956	-0.059052	0.000305	0.022888	0.080566	-0.025482	-0.30518	0.1416	-0.062256	-0.095978	-0.068512	0.006714	0.025482	0.010681	-0.002899	-0.058746	-0.00351	0.010681
9.406	0.025787	0.27115	0.20294	-0.003662	0.028687	-0.028687	-0.14191	0.015869	-0.065155	0.091553	0.013885	0.02121	-0.06958	-0.042877	0.004578	0.22385	0.019836	0.079193	-0.072479	-0.11353	-0.18692	0.080261	-0.075989	-0.083008	-0.13184	0	-0.081177	0.010986	0.7547	-0.051727	-0.001984	-0.012054
9.407	0.035706	0.25146	0.31296	0.011902	-0.10574	-0.010529	-0.13504	0.013733	-0.052795	0.080872	-0.000153	-0.01358	-0.001068	0.062866	0.068512	0.028839	-0.075684	0.049133	-0.2739	-0.079193	-0.009918	0.090942	-0.10834	0.037842	-0.18845	-0.009766	-0.10391	0.009613	0.71304	-0.012054	-0.005188	-0.012817
9.408	0.042572	0.23331	0.30701	0.013275	-0.18585	-0.054779	-0.14236	0.005188	-0.053101	0.050049	-0.010681	0.002899	0.020142	0.20783	0.052032	-0.17227	-0.14175	-0.014954	-0.35507	-0.048828	0.020905	0.18906	-0.33157	0.03006	-0.15595	-0.009155	-0.17273	0.00473	0.58426	0.0177	-0.003052	-0.00351
9.409	0.045013	0.28519	0.31067	0.003052	-0.043793	-0.054626	-0.16159	0.010986	-0.05127	0.046844	-0.021362	0.010986	0.062408	0.30991	0.007935	-0.09613	-0.10834	0.025177	-0.11963	0.001221	0.14969	0.19424	-0.25009	-0.027466	-0.10941	-0.008545	-0.19455	0.005341	0.44434	0.046997	-0.001831	0.010681
9.41	0.05127	0.3537	0.25223	-0.005951	0.1651	-0.00061	-0.16129	0.005646	-0.045624	-0.078735	-0.006256	0.036316	0.004425	0.15427	-0.029297	-0.010071	-0.062408	-0.0383	0.31433	0.097351	0.097961	0.24994	-0.20401	-0.11215	-0.013428	-0.010529	-0.16632	0.00412	0.11963	0.037994	-0.000153	-0.010986
